<?xml version="1.0" encoding="UTF-8" standalone="no"?><!DOCTYPE svg PUBLIC "-//W3C//DTD SVG 1.1//EN" "http://www.w3.org/Graphics/SVG/1.1/DTD/svg11.dtd"><svg width="100%" height="100%" viewBox="0 0 860 280" version="1.1" xmlns="http://www.w3.org/2000/svg" xmlns:xlink="http://www.w3.org/1999/xlink" xml:space="preserve" xmlns:serif="http://www.serif.com/" style="fill-rule:evenodd;clip-rule:evenodd;stroke-linejoin:round;stroke-miterlimit:2;"><rect x="104.668" y="104.29" width="752.57" height="146.62" style="fill:#ffb8b8;"/><path d="M16.335,278.282l153.183,-0c-0,-0 -29.28,-136.752 67.671,-192.127c21.136,-10.52 88.42,-49.818 198.556,33.543c3.49,-2.978 6.786,-5.359 6.786,-5.359c0,-0 -100.829,-103.011 -213.098,-91.499c-56.425,5.161 -125.842,57.757 -166.561,127.225c-40.72,69.467 -46.537,128.217 -46.537,128.217Zm319.163,-244.327l0.775,-13.298c-1.745,-0.992 -6.592,-3.374 -18.808,-6.947l-0.776,13.1c6.399,2.183 12.604,4.565 18.809,7.145Zm-18.421,42.077l-0.776,12.505c6.399,0.198 12.798,0.992 19.197,2.381l0.775,-12.305c-6.592,-1.39 -12.991,-2.184 -19.196,-2.581Zm-71.744,-61.925l1.939,0l-3.878,-12.107c-6.011,-0 -12.216,0.397 -18.614,1.191l3.684,11.71c5.623,-0.595 11.246,-0.794 16.869,-0.794Zm9.308,73.04l4.459,13.695c5.623,-2.779 11.247,-5.16 16.87,-6.947l-4.266,-13.099c-6.593,1.985 -12.216,4.168 -17.063,6.351Zm-88.032,-52.2l-8.725,-13.695c-4.848,2.581 -9.889,5.359 -15.125,8.535l8.92,13.893c5.041,-3.175 9.889,-6.152 14.93,-8.733Zm39.75,89.316l9.307,14.29c3.297,-4.962 7.175,-9.527 11.44,-14.092l-8.725,-13.496c-4.46,4.168 -8.532,8.733 -12.022,13.298Zm-28.116,63.91l15.706,12.702c0.776,-7.74 2.133,-15.481 4.072,-23.222l-13.961,-11.313c-2.52,7.344 -4.266,14.687 -5.817,21.833Zm-84.929,-94.278l-13.767,-12.305c-5.041,4.962 -9.889,9.924 -14.349,14.886l14.931,13.099c4.072,-5.359 8.532,-10.718 13.185,-15.68Zm-58.558,88.72l-22.299,-8.336c-3.684,8.535 -7.756,18.459 -9.695,23.818l22.299,8.336c2.52,-6.749 6.592,-16.474 9.695,-23.818Zm140.579,55.971c0.387,10.519 1.357,19.054 2.327,25.008l23.268,8.535c-1.745,-7.741 -3.491,-16.474 -4.654,-25.802l-20.941,-7.741Z" style="fill:#c00;fill-rule:nonzero;"/><rect x="395.216" y="104.29" width="90.646" height="41.871" style="fill:#ffb8b8;"/><g><path d="M722.524,73.305l16.966,-0c6.769,-0 11.622,1.459 14.561,4.376c2.939,2.917 4.409,7.11 4.409,12.58l-0,34.322c-0,5.47 -1.47,9.663 -4.409,12.581c-2.939,2.917 -7.792,4.375 -14.561,4.375l-16.966,0c-6.768,0 -11.622,-1.458 -14.561,-4.375c-2.939,-2.918 -4.409,-7.111 -4.409,-12.581l0,-34.322c0,-5.47 1.47,-9.663 4.409,-12.58c2.939,-2.917 7.793,-4.376 14.561,-4.376Zm13.626,49.09l0,-29.946c0,-2.006 -1.113,-3.008 -3.339,-3.008l-3.607,-0c-2.227,-0 -3.34,1.002 -3.34,3.008l-0,29.946c-0,2.006 1.113,3.009 3.34,3.009l3.607,-0c2.226,-0 3.339,-1.003 3.339,-3.009Z" style="fill:#c00;fill-rule:nonzero;"/><path d="M276.246,190.493l21.375,0l-0,87.789l-20.039,-0l-19.103,-46.082l-0,46.082l-21.374,-0l-0,-87.789l20.038,0l19.103,46.903l0,-46.903Z" style="fill:#c00;fill-rule:nonzero;"/><path d="M331.686,261.189l29.256,-0l0,17.093l-52.634,-0l-0,-87.789l51.432,0l-0,17.093l-28.054,-0l-0,17.913l24.18,0l-0,17.093l-24.18,0l-0,18.597Z" style="fill:#c00;fill-rule:nonzero;"/><path d="M450.18,190.493l23.111,0l-18.168,87.789l-26.852,-0l-9.485,-52.373l-9.485,52.373l-26.851,-0l-18.168,-87.789l24.313,0l7.214,59.073l11.489,-59.073l22.843,0l11.489,59.073l8.55,-59.073Z" style="fill:#c00;fill-rule:nonzero;"/><path d="M568.941,247.105l-0,31.177l-23.378,-0l-0,-87.789l39.676,0c13.091,0 19.637,5.652 19.637,16.956l0,22.699c0,8.661 -3.829,13.994 -11.488,15.999l15.763,32.135l-25.115,-0l-13.626,-31.177l-1.469,-0Zm9.217,-39.519l-9.217,-0l-0,23.246l9.217,0c2.227,0 3.34,-1.003 3.34,-3.008l0,-17.23c0,-2.005 -1.113,-3.008 -3.34,-3.008Z" style="fill:#c00;fill-rule:nonzero;"/><path d="M633.465,190.493l19.771,0c13.092,0 19.637,5.652 19.637,16.956l0,53.877c0,11.304 -6.545,16.956 -19.637,16.956l-19.771,-0c-13.092,-0 -19.638,-5.652 -19.638,-16.956l-0,-53.877c-0,-11.304 6.546,-16.956 19.638,-16.956Zm16.03,67.688l0,-47.587c0,-2.005 -1.113,-3.008 -3.339,-3.008l-5.611,-0c-2.227,-0 -3.34,1.003 -3.34,3.008l0,47.587c0,2.005 1.113,3.008 3.34,3.008l5.611,-0c2.226,-0 3.339,-1.003 3.339,-3.008Z" style="fill:#c00;fill-rule:nonzero;"/><path d="M702.397,190.493l19.771,0c13.092,0 19.638,5.652 19.638,16.956l-0,53.877c-0,11.304 -6.546,16.956 -19.638,16.956l-19.771,-0c-13.092,-0 -19.638,-5.652 -19.638,-16.956l0,-53.877c0,-11.304 6.546,-16.956 19.638,-16.956Zm16.03,67.688l0,-47.587c0,-2.005 -1.113,-3.008 -3.339,-3.008l-5.611,-0c-2.227,-0 -3.34,1.003 -3.34,3.008l0,47.587c0,2.005 1.113,3.008 3.34,3.008l5.611,-0c2.226,-0 3.339,-1.003 3.339,-3.008Z" style="fill:#c00;fill-rule:nonzero;"/><path d="M772.932,278.282l-20.84,-0l-0,-87.789l25.516,0l13.893,46.903l13.893,-46.903l25.516,0l-0,87.789l-20.707,-0l0,-55.791l-10.687,36.784l-16.031,-0l-10.553,-36.511l-0,55.518Z" style="fill:#c00;fill-rule:nonzero;"/><path d="M479.498,256.238l-0,22.468l36.418,0c7.462,0 20.269,-6.082 20.715,-23.088l-0,-8.69c-0,-14.523 -10.692,-23.088 -20.715,-23.088l-18.154,-0l0,-10.427l35.973,-0l0,-22.592l-34.525,-0c-8.909,-0 -20.826,8.193 -20.826,23.461l0,7.82c0,15.268 11.805,23.089 20.826,23.089c25.059,0.124 -6.014,-0 17.151,-0l0,10.923l-36.863,0.124Z" style="fill:#c00;fill-rule:nonzero;"/><path d="M675.935,113.743c0,0 19.558,-1.818 19.558,-29.211c0,-27.393 -23.693,-29.939 -23.693,-29.939l-42.692,0l0,86.422l21.458,0l0,-20.848l18.552,20.848l31.74,0l-24.923,-27.272Zm-8.27,-17.696l-17.099,-0l0,-19.757l17.211,-0c0,-0 4.806,1.939 4.806,9.818c-0,7.878 -4.918,9.939 -4.918,9.939Z" style="fill:#c00;fill-rule:nonzero;"/><path d="M811.647,113.717c0,0 19.558,-1.818 19.558,-29.211c0,-27.393 -23.693,-29.939 -23.693,-29.939l-42.692,0l-0,86.422l21.458,0l-0,-20.848l18.552,20.848l31.74,0l-24.923,-27.272Zm-8.27,-17.696l-17.099,-0l-0,-19.757l17.211,-0c-0,-0 4.805,1.939 4.805,9.817c0,7.879 -4.917,9.94 -4.917,9.94Z" style="fill:#c00;fill-rule:nonzero;"/></g></svg>