<svg clip-rule="evenodd" fill-rule="evenodd" stroke-linejoin="round" stroke-miterlimit="2" viewBox="0 0 952 768" xmlns="http://www.w3.org/2000/svg"><g fill-rule="nonzero"><path d="m937.588 602.387h-922.006c-8.23 0-14.883-6.732-14.883-15.061s6.653-15.061 14.883-15.061h922.006c8.23 0 14.883 6.732 14.883 15.061s-6.653 15.061-14.883 15.061z"/><path d="m937.588 365.355h-922.006c-8.23 0-14.883-6.732-14.883-15.061s6.653-15.061 14.883-15.061h922.006c8.23 0 14.883 6.732 14.883 15.061s-6.653 15.061-14.883 15.061z"/><path d="m907.824 647.556h-863.177c-24.615 0-44.647-20.273-44.647-45.184v-557.188c0-24.912 20.032-45.184 44.647-45.184h863.177c24.615 0 44.647 20.272 44.647 45.184v557.188c0 24.911-20.032 45.184-44.647 45.184zm-863.177-617.434c-8.215 0-14.882 6.748-14.882 15.062v557.188c0 8.314 6.667 15.061 14.882 15.061h863.177c8.215 0 14.882-6.747 14.882-15.061v-557.188c0-8.314-6.667-15.062-14.882-15.062z"/><path d="m312.723 722.816c-8.23 0-14.882-6.732-14.882-15.061v-75.26c0-8.329 6.652-15.062 14.882-15.062s14.882 6.733 14.882 15.062v75.26c0 8.329-6.667 15.061-14.882 15.061z"/><path d="m640.447 722.816c-8.23 0-14.882-6.732-14.882-15.061v-75.26c0-8.329 6.652-15.062 14.882-15.062s14.883 6.733 14.883 15.062v75.26c0 8.329-6.653 15.061-14.883 15.061z"/><path d="m193.381 752.939c-8.23 0-14.882-6.733-14.882-15.061 0-24.912 20.032-45.184 44.647-45.184 8.23 0 14.882 6.732 14.882 15.061s-6.652 15.061-14.882 15.061c-8.215 0-14.882 6.748-14.882 15.062 0 8.328-6.653 15.061-14.883 15.061z"/><path d="m759.089 752.939c-8.23 0-14.882-6.733-14.882-15.061 0-8.314-6.667-15.062-14.882-15.062-8.23 0-14.883-6.732-14.883-15.061s6.653-15.061 14.883-15.061c24.615 0 44.647 20.272 44.647 45.184 0 8.328-6.653 15.061-14.883 15.061z"/><path d="m729.325 722.816h-506.179c-8.23 0-14.882-6.732-14.882-15.061s6.652-15.061 14.882-15.061h506.179c8.23 0 14.882 6.732 14.882 15.061s-6.652 15.061-14.882 15.061z"/><path d="m193.381 768c-8.23 0-14.882-6.732-14.882-15.061v-15.061c0-8.329 6.652-15.062 14.882-15.062s14.883 6.733 14.883 15.062v15.061c0 8.329-6.653 15.061-14.883 15.061z"/><path d="m759.089 768h-565.708c-8.23 0-14.882-6.732-14.882-15.061s6.652-15.061 14.882-15.061h565.708c8.23 0 14.883 6.732 14.883 15.061s-6.653 15.061-14.883 15.061z"/><path d="m759.089 768c-8.23 0-14.882-6.732-14.882-15.061v-15.061c0-8.329 6.652-15.062 14.882-15.062s14.883 6.733 14.883 15.062v15.061c0 8.329-6.653 15.061-14.883 15.061z"/><path d="m404.456 188.954c-6.286 0-11.367-5.142-11.367-11.504v-32.992c0-6.362 5.081-11.504 11.367-11.504s11.367 5.142 11.367 11.504v32.992c0 6.362-5.081 11.504-11.367 11.504z"/><path d="m563.596 188.954c-6.286 0-11.367-5.142-11.367-11.504v-40.274c0-6.362 5.081-11.504 11.367-11.504s11.367 5.142 11.367 11.504v40.274c0 6.362-5.081 11.504-11.367 11.504z"/><path d="m563.596 148.679c-6.286 0-11.367-5.142-11.367-11.503 0-41.23-33.147-74.763-73.898-74.763-40.74 0-73.875 33.533-73.875 74.763 0 6.361-5.081 11.503-11.367 11.503s-11.368-5.142-11.368-11.503c0-53.918 43.343-97.771 96.61-97.771 53.289 0 96.632 43.864 96.632 97.771 0 6.361-5.081 11.503-11.367 11.503z"/><path d="m563.608 164.451c-3.422 0-6.798-1.553-9.037-4.509-21.95-29.013-27.918-26.62-50.175-17.693-21.336 8.57-53.596 21.523-113.081 11.987-6.195-.99-10.435-6.879-9.446-13.161.978-6.269 6.82-10.618 13.004-9.559 53.312 8.501 80.98-2.577 101.157-10.664 27.406-10.998 45.764-15.645 76.592 25.09 3.819 5.038 2.876 12.263-2.115 16.128-2.057 1.61-4.49 2.381-6.899 2.381z"/><path d="m518.116 136.911c-1.671 0-3.387-.38-5.001-1.185-5.627-2.795-7.946-9.697-5.184-15.392l22.734-46.832c2.763-5.706 9.526-8.052 15.221-5.257 5.627 2.796 7.946 9.698 5.184 15.392l-22.735 46.832c-1.978 4.084-6.024 6.442-10.219 6.442z"/><path d="m381.721 338.446c-6.286 0-11.367-5.143-11.367-11.504 0-25.366 20.393-46.004 45.469-46.004 6.286 0 11.367 5.142 11.367 11.504s-5.081 11.504-11.367 11.504c-12.538 0-22.734 10.307-22.734 22.996 0 6.361-5.082 11.504-11.368 11.504z"/><path d="m449.924 304.015h-34.101c-6.286 0-11.367-5.142-11.367-11.504s5.081-11.504 11.367-11.504h34.101c6.286 0 11.368 5.142 11.368 11.504s-5.082 11.504-11.368 11.504z"/><path d="m384.822 455.986c-6.286 0-14.468.393-14.468-13.145v-110.176c0-13.539 5.081-24.482 11.367-24.482s11.368 10.943 11.368 24.482v110.176c0 13.538-1.98 13.145-8.267 13.145z"/><path d="m586.331 338.446c-6.287 0-11.368-5.143-11.368-11.504 0-12.689-10.196-22.996-22.734-22.996-6.286 0-11.367-5.142-11.367-11.504s5.081-11.504 11.367-11.504c25.076 0 45.469 20.638 45.469 46.004 0 6.361-5.081 11.504-11.367 11.504z"/><path d="m552.229 304.015h-34.102c-6.286 0-11.367-5.142-11.367-11.504s5.081-11.504 11.367-11.504h34.102c6.286 0 11.367 5.142 11.367 11.504s-5.081 11.504-11.367 11.504z"/><path d="m588.103 458.872c-6.286 0-13.14-.595-13.14-14.234v-112.699c0-13.639 5.081-24.663 11.368-24.663 6.286 0 11.367 11.024 11.367 24.663v112.699c0 13.639-3.309 14.234-9.595 14.234z"/><path d="m449.924 304.015c-6.286 0-11.367-5.142-11.367-11.504v-42.38c0-6.361 5.081-11.504 11.367-11.504s11.368 5.143 11.368 11.504v42.38c0 6.362-5.082 11.504-11.368 11.504z"/><path d="m518.127 303.934c-6.286 0-11.367-5.142-11.367-11.503v-42.3c0-6.361 5.081-11.504 11.367-11.504 6.287 0 11.368 5.143 11.368 11.504v42.3c0 6.361-5.081 11.503-11.368 11.503z"/><path d="m484.026 269.388c-50.141 0-90.937-41.275-90.937-91.995 0-6.362 5.081-11.504 11.367-11.504s11.367 5.142 11.367 11.504c0 38.043 30.589 68.988 68.203 68.988s68.203-30.945 68.203-68.988c0-6.362 5.081-11.504 11.367-11.504s11.367 5.142 11.367 11.504c0 50.72-40.796 91.995-90.937 91.995z"/><path d="m461.303 315.438c-4.172 0-8.184-2.324-10.185-6.362-2.808-5.682-.534-12.596 5.081-15.438l22.734-11.503c5.616-2.819 12.436-.541 15.255 5.142 2.808 5.683.534 12.596-5.081 15.438l-22.734 11.504c-1.626.828-3.365 1.219-5.07 1.219z"/><path d="m506.76 315.438c-2.91 0-5.82-1.127-8.036-3.371-4.445-4.498-4.445-11.768 0-16.266l11.367-11.504c4.444-4.498 11.629-4.498 16.073 0 4.445 4.498 4.445 11.769 0 16.267l-11.367 11.503c-2.217 2.244-5.127 3.371-8.037 3.371z"/><path d="m461.292 315.438c-2.91 0-5.82-1.127-8.037-3.371l-11.367-11.503c-4.445-4.498-4.445-11.769 0-16.267 4.444-4.498 11.628-4.498 16.073 0l11.367 11.504c4.445 4.498 4.445 11.768 0 16.266-2.216 2.244-5.126 3.371-8.036 3.371z"/><path d="m506.749 315.438c-1.705 0-3.444-.391-5.07-1.208l-22.734-11.504c-5.616-2.841-7.889-9.755-5.081-15.438 2.807-5.683 9.639-7.96 15.254-5.142l22.735 11.504c5.615 2.841 7.889 9.755 5.081 15.438-2.001 4.026-6.013 6.35-10.185 6.35z"/><path d="m683.765 503.701c-6.676 0-12.073-8.403-12.073-18.798v-180.026c0-10.395 5.397-18.797 12.073-18.797s12.072 8.402 12.072 18.797v180.026c0 10.395-5.408 18.798-12.072 18.798z"/><path d="m683.765 310.515c-3.091 0-6.181-1.197-8.535-3.567l-48.291-48.798c-4.72-4.777-4.72-12.498-.012-17.287 4.721-4.778 12.363-4.765 17.083-.013l48.29 48.797c4.72 4.777 4.72 12.499.012 17.288-2.366 2.395-5.469 3.58-8.547 3.58z"/><path d="m297.926 501.176c-6.676 0-12.543-.942-12.543-11.045v-185.782c0-10.103 5.397-18.269 12.073-18.269s12.072 8.166 12.072 18.269v185.782c0 10.103-4.938 11.045-11.602 11.045z"/><path d="m297.456 310.515c-3.091 0-6.193-1.197-8.547-3.58-4.709-4.789-4.709-12.511.012-17.288l48.29-48.797c4.72-4.752 12.362-4.765 17.082.013 4.709 4.789 4.709 12.51-.012 17.287l-48.29 48.798c-2.366 2.382-5.457 3.567-8.535 3.567z"/></g><path d="m29.648 364.933h893.086v208.617h-893.086z" fill="#ffb8b8"/><path d="m53.17 599.299h141.684s-27.081-126.487 62.592-177.706c19.549-9.729 81.782-46.078 183.652 31.025 3.228-2.753 6.277-4.956 6.277-4.956s-93.261-95.278-197.103-84.631c-52.19 4.773-116.396 53.422-154.059 117.675s-43.043 118.593-43.043 118.593zm295.205-225.987.718-12.3c-1.615-.918-6.098-3.121-17.397-6.425l-.718 12.116c5.919 2.019 11.658 4.222 17.397 6.609zm-17.038 38.919-.717 11.565c5.918.184 11.837.918 17.755 2.203l.718-11.382c-6.098-1.285-12.017-2.019-17.756-2.386zm-66.358-57.277h1.793l-3.587-11.199c-5.56 0-11.299.368-17.217 1.102l3.408 10.831c5.201-.551 10.402-.734 15.603-.734zm8.608 67.557 4.125 12.667c5.201-2.57 10.403-4.773 15.604-6.425l-3.946-12.116c-6.098 1.836-11.299 3.855-15.783 5.874zm-81.423-48.281-8.071-12.667c-4.484 2.386-9.147 4.956-13.989 7.894l8.25 12.85c4.663-2.937 9.147-5.691 13.81-8.077zm36.766 82.611 8.609 13.218c3.048-4.59 6.635-8.812 10.581-13.035l-8.071-12.483c-4.125 3.855-7.891 8.077-11.119 12.3zm-26.005 59.113 14.527 11.749c.717-7.16 1.973-14.319 3.766-21.479l-12.913-10.464c-2.332 6.792-3.946 13.585-5.38 20.194zm-78.555-87.201-12.733-11.382c-4.663 4.59-9.147 9.179-13.272 13.769l13.81 12.116c3.766-4.957 7.891-9.913 12.195-14.503zm-54.162 82.06-20.625-7.71c-3.408 7.894-7.174 17.073-8.968 22.03l20.625 7.71c2.332-6.242 6.098-15.237 8.968-22.03zm130.026 51.77c.359 9.73 1.256 17.624 2.153 23.131l21.521 7.894c-1.614-7.16-3.228-15.237-4.304-23.865z" fill="#c00" fill-rule="nonzero"/><path d="m789.195 365.182h19.284c7.694 0 13.211 1.658 16.552 4.974 3.34 3.316 5.011 8.083 5.011 14.3v39.013c0 6.217-1.671 10.984-5.011 14.3-3.341 3.316-8.858 4.973-16.552 4.973h-19.284c-7.694 0-13.211-1.657-16.552-4.973-3.34-3.316-5.011-8.083-5.011-14.3v-39.013c0-6.217 1.671-10.984 5.011-14.3 3.341-3.316 8.858-4.974 16.552-4.974zm15.488 55.8v-34.039c0-2.28-1.265-3.42-3.796-3.42h-4.1c-2.531 0-3.796 1.14-3.796 3.42v34.039c0 2.28 1.265 3.42 3.796 3.42h4.1c2.531 0 3.796-1.14 3.796-3.42z" fill="#c00" fill-rule="nonzero"/><path d="m281.924 498.387h24.296v99.786h-22.777l-21.714-52.38v52.38h-24.296v-99.786h22.777l21.714 53.313z" fill="#c00" fill-rule="nonzero"/><path d="m344.941 578.745h33.254v19.428h-59.827v-99.786h58.461v19.429h-31.888v20.361h27.484v19.429h-27.484z" fill="#c00" fill-rule="nonzero"/><path d="m479.629 498.387h26.27l-20.651 99.786h-30.522l-10.781-59.53-10.781 59.53h-30.521l-20.651-99.786h27.636l8.199 67.146 13.059-67.146h25.966l13.059 67.146z" fill="#c00" fill-rule="nonzero"/><path d="m614.621 562.735v35.438h-26.573v-99.786h45.099c14.881 0 22.321 6.424 22.321 19.273v25.802c0 9.844-4.353 15.906-13.059 18.185l17.918 36.526h-28.547l-15.488-35.438zm10.478-44.919h-10.478v26.423h10.478c2.53 0 3.796-1.14 3.796-3.42v-19.584c0-2.28-1.266-3.419-3.796-3.419z" fill="#c00" fill-rule="nonzero"/><path d="m687.963 498.387h22.474c14.881 0 22.321 6.424 22.321 19.273v61.24c0 12.849-7.44 19.273-22.321 19.273h-22.474c-14.881 0-22.321-6.424-22.321-19.273v-61.24c0-12.849 7.44-19.273 22.321-19.273zm18.222 76.938v-54.09c0-2.28-1.265-3.419-3.796-3.419h-6.378c-2.531 0-3.796 1.139-3.796 3.419v54.09c0 2.28 1.265 3.42 3.796 3.42h6.378c2.531 0 3.796-1.14 3.796-3.42z" fill="#c00" fill-rule="nonzero"/><path d="m766.316 498.387h22.474c14.881 0 22.321 6.424 22.321 19.273v61.24c0 12.849-7.44 19.273-22.321 19.273h-22.474c-14.881 0-22.321-6.424-22.321-19.273v-61.24c0-12.849 7.44-19.273 22.321-19.273zm18.222 76.938v-54.09c0-2.28-1.265-3.419-3.796-3.419h-6.378c-2.53 0-3.796 1.139-3.796 3.419v54.09c0 2.28 1.266 3.42 3.796 3.42h6.378c2.531 0 3.796-1.14 3.796-3.42z" fill="#c00" fill-rule="nonzero"/><path d="m846.492 598.173h-23.688v-99.786h29.002l15.792 53.313 15.793-53.313h29.002v99.786h-23.536v-63.415l-12.148 41.811h-18.221l-11.996-41.501z" fill="#c00" fill-rule="nonzero"/><path d="m514.091 573.117v25.539h41.395c8.482 0 23.04-6.914 23.546-26.244v-9.877c0-16.508-12.153-26.244-23.546-26.244h-20.634v-11.852h40.889v-25.68h-39.244c-10.127 0-23.672 9.313-23.672 26.668v8.889c0 17.355 13.418 26.244 23.672 26.244 28.483.141-6.836 0 19.495 0v12.416z" fill="#c00" fill-rule="nonzero"/><path d="m736.239 411.147s22.231-2.066 22.231-33.203-26.931-34.031-26.931-34.031h-48.527v98.234h24.39v-23.698l21.088 23.698h36.077zm-9.401-20.115h-19.436v-22.457h19.563s5.463 2.204 5.463 11.16c0 8.955-5.59 11.297-5.59 11.297z" fill="#c00" fill-rule="nonzero"/><path d="m890.498 411.118s22.231-2.067 22.231-33.204-26.931-34.03-26.931-34.03h-48.527v98.233h24.391v-23.697l21.087 23.697h36.078zm-9.4-20.115h-19.436v-22.458h19.563s5.462 2.205 5.462 11.16-5.589 11.298-5.589 11.298z" fill="#c00" fill-rule="nonzero"/></svg>